<mxfile host="app.diagrams.net" agent="Mozilla/5.0 (Windows NT 10.0; Win64; x64) AppleWebKit/537.36 (KHTML, like Gecko) Chrome/137.0.0.0 Safari/537.36" version="27.1.6">
  <diagram name="Página-1" id="CUhSxBa3LYpU_q1Nb_ig">
    <mxGraphModel dx="1428" dy="326" grid="1" gridSize="10" guides="1" tooltips="1" connect="1" arrows="1" fold="1" page="1" pageScale="1" pageWidth="827" pageHeight="1169" math="0" shadow="0">
      <root>
        <mxCell id="0" />
        <mxCell id="1" parent="0" />
        <mxCell id="39lKBW_woLL2HkYNTkp4-157" value="" style="rounded=0;whiteSpace=wrap;html=1;" parent="1" vertex="1">
          <mxGeometry x="1495" y="680" width="730" height="620" as="geometry" />
        </mxCell>
        <mxCell id="39lKBW_woLL2HkYNTkp4-1" value="Entidades" style="rounded=1;whiteSpace=wrap;html=1;" parent="1" vertex="1">
          <mxGeometry x="1530" y="200" width="180" height="60" as="geometry" />
        </mxCell>
        <mxCell id="39lKBW_woLL2HkYNTkp4-2" style="edgeStyle=orthogonalEdgeStyle;rounded=0;orthogonalLoop=1;jettySize=auto;html=1;entryX=0.5;entryY=1;entryDx=0;entryDy=0;" parent="1" source="39lKBW_woLL2HkYNTkp4-3" target="39lKBW_woLL2HkYNTkp4-101" edge="1">
          <mxGeometry relative="1" as="geometry">
            <Array as="points">
              <mxPoint x="2085" y="1035" />
              <mxPoint x="1865" y="1035" />
            </Array>
          </mxGeometry>
        </mxCell>
        <mxCell id="39lKBW_woLL2HkYNTkp4-3" value="Alunos" style="swimlane;fontStyle=2;align=center;verticalAlign=top;childLayout=stackLayout;horizontal=1;startSize=26;horizontalStack=0;resizeParent=1;resizeLast=0;collapsible=1;marginBottom=0;rounded=0;shadow=0;strokeWidth=1;" parent="1" vertex="1">
          <mxGeometry x="2005" y="1145" width="160" height="156" as="geometry">
            <mxRectangle x="230" y="140" width="160" height="26" as="alternateBounds" />
          </mxGeometry>
        </mxCell>
        <mxCell id="39lKBW_woLL2HkYNTkp4-7" value="Cursos" style="text;align=left;verticalAlign=top;spacingLeft=4;spacingRight=4;overflow=hidden;rotatable=0;points=[[0,0.5],[1,0.5]];portConstraint=eastwest;rounded=0;shadow=0;html=0;" parent="39lKBW_woLL2HkYNTkp4-3" vertex="1">
          <mxGeometry y="26" width="160" height="26" as="geometry" />
        </mxCell>
        <mxCell id="39lKBW_woLL2HkYNTkp4-8" value="Em progresso" style="text;align=left;verticalAlign=top;spacingLeft=4;spacingRight=4;overflow=hidden;rotatable=0;points=[[0,0.5],[1,0.5]];portConstraint=eastwest;rounded=0;shadow=0;html=0;" parent="39lKBW_woLL2HkYNTkp4-3" vertex="1">
          <mxGeometry y="52" width="160" height="26" as="geometry" />
        </mxCell>
        <mxCell id="39lKBW_woLL2HkYNTkp4-152" value="Aulas" style="text;align=left;verticalAlign=top;spacingLeft=4;spacingRight=4;overflow=hidden;rotatable=0;points=[[0,0.5],[1,0.5]];portConstraint=eastwest;rounded=0;shadow=0;html=0;" parent="39lKBW_woLL2HkYNTkp4-3" vertex="1">
          <mxGeometry y="78" width="160" height="26" as="geometry" />
        </mxCell>
        <mxCell id="39lKBW_woLL2HkYNTkp4-151" value="Matérias" style="text;align=left;verticalAlign=top;spacingLeft=4;spacingRight=4;overflow=hidden;rotatable=0;points=[[0,0.5],[1,0.5]];portConstraint=eastwest;rounded=0;shadow=0;html=0;" parent="39lKBW_woLL2HkYNTkp4-3" vertex="1">
          <mxGeometry y="104" width="160" height="26" as="geometry" />
        </mxCell>
        <mxCell id="95m8hWRHG62bw1tJJEt7-7" value="Provas" style="text;align=left;verticalAlign=top;spacingLeft=4;spacingRight=4;overflow=hidden;rotatable=0;points=[[0,0.5],[1,0.5]];portConstraint=eastwest;rounded=0;shadow=0;html=0;" parent="39lKBW_woLL2HkYNTkp4-3" vertex="1">
          <mxGeometry y="130" width="160" height="26" as="geometry" />
        </mxCell>
        <mxCell id="39lKBW_woLL2HkYNTkp4-19" style="edgeStyle=orthogonalEdgeStyle;rounded=0;orthogonalLoop=1;jettySize=auto;html=1;entryX=0.5;entryY=1;entryDx=0;entryDy=0;" parent="1" source="39lKBW_woLL2HkYNTkp4-20" target="39lKBW_woLL2HkYNTkp4-101" edge="1">
          <mxGeometry relative="1" as="geometry">
            <Array as="points">
              <mxPoint x="1645" y="1035" />
              <mxPoint x="1865" y="1035" />
            </Array>
          </mxGeometry>
        </mxCell>
        <mxCell id="39lKBW_woLL2HkYNTkp4-20" value="Professor" style="swimlane;fontStyle=0;align=center;verticalAlign=top;childLayout=stackLayout;horizontal=1;startSize=26;horizontalStack=0;resizeParent=1;resizeLast=0;collapsible=1;marginBottom=0;rounded=0;shadow=0;strokeWidth=1;" parent="1" vertex="1">
          <mxGeometry x="1565" y="1145" width="160" height="110" as="geometry">
            <mxRectangle x="130" y="380" width="160" height="26" as="alternateBounds" />
          </mxGeometry>
        </mxCell>
        <mxCell id="39lKBW_woLL2HkYNTkp4-21" value="Matérias" style="text;align=left;verticalAlign=top;spacingLeft=4;spacingRight=4;overflow=hidden;rotatable=0;points=[[0,0.5],[1,0.5]];portConstraint=eastwest;rounded=0;shadow=0;html=0;" parent="39lKBW_woLL2HkYNTkp4-20" vertex="1">
          <mxGeometry y="26" width="160" height="26" as="geometry" />
        </mxCell>
        <mxCell id="39lKBW_woLL2HkYNTkp4-23" value="Cursos" style="text;align=left;verticalAlign=top;spacingLeft=4;spacingRight=4;overflow=hidden;rotatable=0;points=[[0,0.5],[1,0.5]];portConstraint=eastwest;rounded=0;shadow=0;html=0;" parent="39lKBW_woLL2HkYNTkp4-20" vertex="1">
          <mxGeometry y="52" width="160" height="26" as="geometry" />
        </mxCell>
        <mxCell id="39lKBW_woLL2HkYNTkp4-24" value="Aulas" style="text;align=left;verticalAlign=top;spacingLeft=4;spacingRight=4;overflow=hidden;rotatable=0;points=[[0,0.5],[1,0.5]];portConstraint=eastwest;rounded=0;shadow=0;html=0;" parent="39lKBW_woLL2HkYNTkp4-20" vertex="1">
          <mxGeometry y="78" width="160" height="26" as="geometry" />
        </mxCell>
        <mxCell id="39lKBW_woLL2HkYNTkp4-165" style="edgeStyle=orthogonalEdgeStyle;rounded=0;orthogonalLoop=1;jettySize=auto;html=1;" parent="1" source="39lKBW_woLL2HkYNTkp4-44" edge="1">
          <mxGeometry relative="1" as="geometry">
            <mxPoint x="2025" y="438" as="targetPoint" />
          </mxGeometry>
        </mxCell>
        <mxCell id="39lKBW_woLL2HkYNTkp4-44" value="Curso" style="swimlane;fontStyle=0;align=center;verticalAlign=top;childLayout=stackLayout;horizontal=1;startSize=26;horizontalStack=0;resizeParent=1;resizeLast=0;collapsible=1;marginBottom=0;rounded=0;shadow=0;strokeWidth=1;" parent="1" vertex="1">
          <mxGeometry x="1685" y="360" width="160" height="156" as="geometry">
            <mxRectangle x="130" y="380" width="160" height="26" as="alternateBounds" />
          </mxGeometry>
        </mxCell>
        <mxCell id="39lKBW_woLL2HkYNTkp4-45" value="Nome" style="text;align=left;verticalAlign=top;spacingLeft=4;spacingRight=4;overflow=hidden;rotatable=0;points=[[0,0.5],[1,0.5]];portConstraint=eastwest;" parent="39lKBW_woLL2HkYNTkp4-44" vertex="1">
          <mxGeometry y="26" width="160" height="26" as="geometry" />
        </mxCell>
        <mxCell id="39lKBW_woLL2HkYNTkp4-46" value="Matérias" style="text;align=left;verticalAlign=top;spacingLeft=4;spacingRight=4;overflow=hidden;rotatable=0;points=[[0,0.5],[1,0.5]];portConstraint=eastwest;rounded=0;shadow=0;html=0;" parent="39lKBW_woLL2HkYNTkp4-44" vertex="1">
          <mxGeometry y="52" width="160" height="26" as="geometry" />
        </mxCell>
        <mxCell id="39lKBW_woLL2HkYNTkp4-47" value="Alunos" style="text;align=left;verticalAlign=top;spacingLeft=4;spacingRight=4;overflow=hidden;rotatable=0;points=[[0,0.5],[1,0.5]];portConstraint=eastwest;fontStyle=0" parent="39lKBW_woLL2HkYNTkp4-44" vertex="1">
          <mxGeometry y="78" width="160" height="26" as="geometry" />
        </mxCell>
        <mxCell id="39lKBW_woLL2HkYNTkp4-48" value="Comentarios" style="text;align=left;verticalAlign=top;spacingLeft=4;spacingRight=4;overflow=hidden;rotatable=0;points=[[0,0.5],[1,0.5]];portConstraint=eastwest;" parent="39lKBW_woLL2HkYNTkp4-44" vertex="1">
          <mxGeometry y="104" width="160" height="26" as="geometry" />
        </mxCell>
        <mxCell id="39lKBW_woLL2HkYNTkp4-49" value="Aulas" style="text;align=left;verticalAlign=top;spacingLeft=4;spacingRight=4;overflow=hidden;rotatable=0;points=[[0,0.5],[1,0.5]];portConstraint=eastwest;" parent="39lKBW_woLL2HkYNTkp4-44" vertex="1">
          <mxGeometry y="130" width="160" height="26" as="geometry" />
        </mxCell>
        <mxCell id="39lKBW_woLL2HkYNTkp4-177" style="edgeStyle=orthogonalEdgeStyle;rounded=0;orthogonalLoop=1;jettySize=auto;html=1;" parent="1" source="39lKBW_woLL2HkYNTkp4-55" edge="1">
          <mxGeometry relative="1" as="geometry">
            <mxPoint x="1765" y="680" as="targetPoint" />
            <Array as="points">
              <mxPoint x="1766" y="570" />
            </Array>
          </mxGeometry>
        </mxCell>
        <mxCell id="39lKBW_woLL2HkYNTkp4-178" style="edgeStyle=orthogonalEdgeStyle;rounded=0;orthogonalLoop=1;jettySize=auto;html=1;entryX=0.5;entryY=0;entryDx=0;entryDy=0;" parent="1" source="39lKBW_woLL2HkYNTkp4-55" target="39lKBW_woLL2HkYNTkp4-120" edge="1">
          <mxGeometry relative="1" as="geometry" />
        </mxCell>
        <mxCell id="39lKBW_woLL2HkYNTkp4-55" value="Aula" style="swimlane;fontStyle=0;align=center;verticalAlign=top;childLayout=stackLayout;horizontal=1;startSize=26;horizontalStack=0;resizeParent=1;resizeLast=0;collapsible=1;marginBottom=0;rounded=0;shadow=0;strokeWidth=1;" parent="1" vertex="1">
          <mxGeometry x="1245" y="360" width="160" height="214" as="geometry">
            <mxRectangle x="130" y="380" width="160" height="26" as="alternateBounds" />
          </mxGeometry>
        </mxCell>
        <mxCell id="39lKBW_woLL2HkYNTkp4-56" value="Professor" style="text;align=left;verticalAlign=top;spacingLeft=4;spacingRight=4;overflow=hidden;rotatable=0;points=[[0,0.5],[1,0.5]];portConstraint=eastwest;" parent="39lKBW_woLL2HkYNTkp4-55" vertex="1">
          <mxGeometry y="26" width="160" height="26" as="geometry" />
        </mxCell>
        <mxCell id="39lKBW_woLL2HkYNTkp4-57" value="Titulo" style="text;align=left;verticalAlign=top;spacingLeft=4;spacingRight=4;overflow=hidden;rotatable=0;points=[[0,0.5],[1,0.5]];portConstraint=eastwest;" parent="39lKBW_woLL2HkYNTkp4-55" vertex="1">
          <mxGeometry y="52" width="160" height="28" as="geometry" />
        </mxCell>
        <mxCell id="39lKBW_woLL2HkYNTkp4-149" value="Matéria" style="text;align=left;verticalAlign=top;spacingLeft=4;spacingRight=4;overflow=hidden;rotatable=0;points=[[0,0.5],[1,0.5]];portConstraint=eastwest;" parent="39lKBW_woLL2HkYNTkp4-55" vertex="1">
          <mxGeometry y="80" width="160" height="28" as="geometry" />
        </mxCell>
        <mxCell id="39lKBW_woLL2HkYNTkp4-58" value="Check-in" style="text;align=left;verticalAlign=top;spacingLeft=4;spacingRight=4;overflow=hidden;rotatable=0;points=[[0,0.5],[1,0.5]];portConstraint=eastwest;" parent="39lKBW_woLL2HkYNTkp4-55" vertex="1">
          <mxGeometry y="108" width="160" height="28" as="geometry" />
        </mxCell>
        <mxCell id="39lKBW_woLL2HkYNTkp4-144" value="Comentarios" style="text;align=left;verticalAlign=top;spacingLeft=4;spacingRight=4;overflow=hidden;rotatable=0;points=[[0,0.5],[1,0.5]];portConstraint=eastwest;" parent="39lKBW_woLL2HkYNTkp4-55" vertex="1">
          <mxGeometry y="136" width="160" height="26" as="geometry" />
        </mxCell>
        <mxCell id="39lKBW_woLL2HkYNTkp4-146" value="Material" style="text;align=left;verticalAlign=top;spacingLeft=4;spacingRight=4;overflow=hidden;rotatable=0;points=[[0,0.5],[1,0.5]];portConstraint=eastwest;" parent="39lKBW_woLL2HkYNTkp4-55" vertex="1">
          <mxGeometry y="162" width="160" height="26" as="geometry" />
        </mxCell>
        <mxCell id="39lKBW_woLL2HkYNTkp4-147" value="Provas" style="text;align=left;verticalAlign=top;spacingLeft=4;spacingRight=4;overflow=hidden;rotatable=0;points=[[0,0.5],[1,0.5]];portConstraint=eastwest;" parent="39lKBW_woLL2HkYNTkp4-55" vertex="1">
          <mxGeometry y="188" width="160" height="26" as="geometry" />
        </mxCell>
        <mxCell id="39lKBW_woLL2HkYNTkp4-166" style="edgeStyle=orthogonalEdgeStyle;rounded=0;orthogonalLoop=1;jettySize=auto;html=1;entryX=0.5;entryY=1;entryDx=0;entryDy=0;" parent="1" source="39lKBW_woLL2HkYNTkp4-92" target="39lKBW_woLL2HkYNTkp4-55" edge="1">
          <mxGeometry relative="1" as="geometry" />
        </mxCell>
        <mxCell id="39lKBW_woLL2HkYNTkp4-92" value="Material" style="swimlane;fontStyle=0;align=center;verticalAlign=top;childLayout=stackLayout;horizontal=1;startSize=26;horizontalStack=0;resizeParent=1;resizeLast=0;collapsible=1;marginBottom=0;rounded=0;shadow=0;strokeWidth=1;" parent="1" vertex="1">
          <mxGeometry x="1245" y="710" width="160" height="155" as="geometry">
            <mxRectangle x="130" y="380" width="160" height="26" as="alternateBounds" />
          </mxGeometry>
        </mxCell>
        <mxCell id="39lKBW_woLL2HkYNTkp4-93" value="Nome" style="text;align=left;verticalAlign=top;spacingLeft=4;spacingRight=4;overflow=hidden;rotatable=0;points=[[0,0.5],[1,0.5]];portConstraint=eastwest;" parent="39lKBW_woLL2HkYNTkp4-92" vertex="1">
          <mxGeometry y="26" width="160" height="26" as="geometry" />
        </mxCell>
        <mxCell id="39lKBW_woLL2HkYNTkp4-94" value="Matéria" style="text;align=left;verticalAlign=top;spacingLeft=4;spacingRight=4;overflow=hidden;rotatable=0;points=[[0,0.5],[1,0.5]];portConstraint=eastwest;rounded=0;shadow=0;html=0;" parent="39lKBW_woLL2HkYNTkp4-92" vertex="1">
          <mxGeometry y="52" width="160" height="24" as="geometry" />
        </mxCell>
        <mxCell id="39lKBW_woLL2HkYNTkp4-95" value="Formato" style="text;align=left;verticalAlign=top;spacingLeft=4;spacingRight=4;overflow=hidden;rotatable=0;points=[[0,0.5],[1,0.5]];portConstraint=eastwest;" parent="39lKBW_woLL2HkYNTkp4-92" vertex="1">
          <mxGeometry y="76" width="160" height="26" as="geometry" />
        </mxCell>
        <mxCell id="39lKBW_woLL2HkYNTkp4-96" value="Caminho para arquivo" style="text;align=left;verticalAlign=top;spacingLeft=4;spacingRight=4;overflow=hidden;rotatable=0;points=[[0,0.5],[1,0.5]];portConstraint=eastwest;rounded=0;shadow=0;html=0;" parent="39lKBW_woLL2HkYNTkp4-92" vertex="1">
          <mxGeometry y="102" width="160" height="26" as="geometry" />
        </mxCell>
        <mxCell id="39lKBW_woLL2HkYNTkp4-97" value="Aula" style="text;align=left;verticalAlign=top;spacingLeft=4;spacingRight=4;overflow=hidden;rotatable=0;points=[[0,0.5],[1,0.5]];portConstraint=eastwest;rounded=0;shadow=0;html=0;" parent="39lKBW_woLL2HkYNTkp4-92" vertex="1">
          <mxGeometry y="128" width="160" height="26" as="geometry" />
        </mxCell>
        <mxCell id="39lKBW_woLL2HkYNTkp4-101" value="Usuário" style="swimlane;fontStyle=0;align=center;verticalAlign=top;childLayout=stackLayout;horizontal=1;startSize=26;horizontalStack=0;resizeParent=1;resizeLast=0;collapsible=1;marginBottom=0;rounded=0;shadow=0;strokeWidth=1;" parent="1" vertex="1">
          <mxGeometry x="1785" y="700" width="160" height="260" as="geometry">
            <mxRectangle x="130" y="380" width="160" height="26" as="alternateBounds" />
          </mxGeometry>
        </mxCell>
        <mxCell id="39lKBW_woLL2HkYNTkp4-102" value="Nome" style="text;align=left;verticalAlign=top;spacingLeft=4;spacingRight=4;overflow=hidden;rotatable=0;points=[[0,0.5],[1,0.5]];portConstraint=eastwest;" parent="39lKBW_woLL2HkYNTkp4-101" vertex="1">
          <mxGeometry y="26" width="160" height="26" as="geometry" />
        </mxCell>
        <mxCell id="39lKBW_woLL2HkYNTkp4-150" value="Nascimento" style="text;align=left;verticalAlign=top;spacingLeft=4;spacingRight=4;overflow=hidden;rotatable=0;points=[[0,0.5],[1,0.5]];portConstraint=eastwest;rounded=0;shadow=0;html=0;" parent="39lKBW_woLL2HkYNTkp4-101" vertex="1">
          <mxGeometry y="52" width="160" height="26" as="geometry" />
        </mxCell>
        <mxCell id="39lKBW_woLL2HkYNTkp4-5" value="Genero" style="text;align=left;verticalAlign=top;spacingLeft=4;spacingRight=4;overflow=hidden;rotatable=0;points=[[0,0.5],[1,0.5]];portConstraint=eastwest;rounded=0;shadow=0;html=0;" parent="39lKBW_woLL2HkYNTkp4-101" vertex="1">
          <mxGeometry y="78" width="160" height="26" as="geometry" />
        </mxCell>
        <mxCell id="39lKBW_woLL2HkYNTkp4-104" value="E-mail" style="text;align=left;verticalAlign=top;spacingLeft=4;spacingRight=4;overflow=hidden;rotatable=0;points=[[0,0.5],[1,0.5]];portConstraint=eastwest;rounded=0;shadow=0;html=0;" parent="39lKBW_woLL2HkYNTkp4-101" vertex="1">
          <mxGeometry y="104" width="160" height="26" as="geometry" />
        </mxCell>
        <mxCell id="39lKBW_woLL2HkYNTkp4-105" value="Telefone" style="text;align=left;verticalAlign=top;spacingLeft=4;spacingRight=4;overflow=hidden;rotatable=0;points=[[0,0.5],[1,0.5]];portConstraint=eastwest;rounded=0;shadow=0;html=0;" parent="39lKBW_woLL2HkYNTkp4-101" vertex="1">
          <mxGeometry y="130" width="160" height="26" as="geometry" />
        </mxCell>
        <mxCell id="39lKBW_woLL2HkYNTkp4-107" value="Cidade" style="text;align=left;verticalAlign=top;spacingLeft=4;spacingRight=4;overflow=hidden;rotatable=0;points=[[0,0.5],[1,0.5]];portConstraint=eastwest;rounded=0;shadow=0;html=0;" parent="39lKBW_woLL2HkYNTkp4-101" vertex="1">
          <mxGeometry y="156" width="160" height="26" as="geometry" />
        </mxCell>
        <mxCell id="39lKBW_woLL2HkYNTkp4-109" value="Estado" style="text;align=left;verticalAlign=top;spacingLeft=4;spacingRight=4;overflow=hidden;rotatable=0;points=[[0,0.5],[1,0.5]];portConstraint=eastwest;rounded=0;shadow=0;html=0;" parent="39lKBW_woLL2HkYNTkp4-101" vertex="1">
          <mxGeometry y="182" width="160" height="26" as="geometry" />
        </mxCell>
        <mxCell id="39lKBW_woLL2HkYNTkp4-108" value="País" style="text;align=left;verticalAlign=top;spacingLeft=4;spacingRight=4;overflow=hidden;rotatable=0;points=[[0,0.5],[1,0.5]];portConstraint=eastwest;rounded=0;shadow=0;html=0;" parent="39lKBW_woLL2HkYNTkp4-101" vertex="1">
          <mxGeometry y="208" width="160" height="26" as="geometry" />
        </mxCell>
        <mxCell id="39lKBW_woLL2HkYNTkp4-110" value="CEP" style="text;align=left;verticalAlign=top;spacingLeft=4;spacingRight=4;overflow=hidden;rotatable=0;points=[[0,0.5],[1,0.5]];portConstraint=eastwest;rounded=0;shadow=0;html=0;" parent="39lKBW_woLL2HkYNTkp4-101" vertex="1">
          <mxGeometry y="234" width="160" height="26" as="geometry" />
        </mxCell>
        <mxCell id="39lKBW_woLL2HkYNTkp4-114" value="Comentarios" style="swimlane;fontStyle=0;align=center;verticalAlign=top;childLayout=stackLayout;horizontal=1;startSize=26;horizontalStack=0;resizeParent=1;resizeLast=0;collapsible=1;marginBottom=0;rounded=0;shadow=0;strokeWidth=1;" parent="1" vertex="1">
          <mxGeometry x="2035" y="360" width="160" height="208" as="geometry">
            <mxRectangle x="130" y="380" width="160" height="26" as="alternateBounds" />
          </mxGeometry>
        </mxCell>
        <mxCell id="39lKBW_woLL2HkYNTkp4-115" value="Titulo" style="text;align=left;verticalAlign=top;spacingLeft=4;spacingRight=4;overflow=hidden;rotatable=0;points=[[0,0.5],[1,0.5]];portConstraint=eastwest;" parent="39lKBW_woLL2HkYNTkp4-114" vertex="1">
          <mxGeometry y="26" width="160" height="26" as="geometry" />
        </mxCell>
        <mxCell id="39lKBW_woLL2HkYNTkp4-116" value="Descrição" style="text;align=left;verticalAlign=top;spacingLeft=4;spacingRight=4;overflow=hidden;rotatable=0;points=[[0,0.5],[1,0.5]];portConstraint=eastwest;" parent="39lKBW_woLL2HkYNTkp4-114" vertex="1">
          <mxGeometry y="52" width="160" height="26" as="geometry" />
        </mxCell>
        <mxCell id="39lKBW_woLL2HkYNTkp4-117" value="Data do comentário" style="text;align=left;verticalAlign=top;spacingLeft=4;spacingRight=4;overflow=hidden;rotatable=0;points=[[0,0.5],[1,0.5]];portConstraint=eastwest;" parent="39lKBW_woLL2HkYNTkp4-114" vertex="1">
          <mxGeometry y="78" width="160" height="26" as="geometry" />
        </mxCell>
        <mxCell id="39lKBW_woLL2HkYNTkp4-153" value="Aula" style="text;align=left;verticalAlign=top;spacingLeft=4;spacingRight=4;overflow=hidden;rotatable=0;points=[[0,0.5],[1,0.5]];portConstraint=eastwest;" parent="39lKBW_woLL2HkYNTkp4-114" vertex="1">
          <mxGeometry y="104" width="160" height="26" as="geometry" />
        </mxCell>
        <mxCell id="39lKBW_woLL2HkYNTkp4-154" value="Curso" style="text;align=left;verticalAlign=top;spacingLeft=4;spacingRight=4;overflow=hidden;rotatable=0;points=[[0,0.5],[1,0.5]];portConstraint=eastwest;" parent="39lKBW_woLL2HkYNTkp4-114" vertex="1">
          <mxGeometry y="130" width="160" height="26" as="geometry" />
        </mxCell>
        <mxCell id="39lKBW_woLL2HkYNTkp4-155" value="Aluno" style="text;align=left;verticalAlign=top;spacingLeft=4;spacingRight=4;overflow=hidden;rotatable=0;points=[[0,0.5],[1,0.5]];portConstraint=eastwest;" parent="39lKBW_woLL2HkYNTkp4-114" vertex="1">
          <mxGeometry y="156" width="160" height="26" as="geometry" />
        </mxCell>
        <mxCell id="39lKBW_woLL2HkYNTkp4-156" value="Anonimo" style="text;align=left;verticalAlign=top;spacingLeft=4;spacingRight=4;overflow=hidden;rotatable=0;points=[[0,0.5],[1,0.5]];portConstraint=eastwest;" parent="39lKBW_woLL2HkYNTkp4-114" vertex="1">
          <mxGeometry y="182" width="160" height="26" as="geometry" />
        </mxCell>
        <mxCell id="39lKBW_woLL2HkYNTkp4-179" style="edgeStyle=orthogonalEdgeStyle;rounded=0;orthogonalLoop=1;jettySize=auto;html=1;entryX=0.5;entryY=0;entryDx=0;entryDy=0;" parent="1" source="39lKBW_woLL2HkYNTkp4-120" target="39lKBW_woLL2HkYNTkp4-134" edge="1">
          <mxGeometry relative="1" as="geometry" />
        </mxCell>
        <mxCell id="39lKBW_woLL2HkYNTkp4-120" value="Provas" style="swimlane;fontStyle=0;align=center;verticalAlign=top;childLayout=stackLayout;horizontal=1;startSize=26;horizontalStack=0;resizeParent=1;resizeLast=0;collapsible=1;marginBottom=0;rounded=0;shadow=0;strokeWidth=1;" parent="1" vertex="1">
          <mxGeometry x="1015" y="710" width="160" height="182" as="geometry">
            <mxRectangle x="130" y="380" width="160" height="26" as="alternateBounds" />
          </mxGeometry>
        </mxCell>
        <mxCell id="39lKBW_woLL2HkYNTkp4-121" value="Curso" style="text;align=left;verticalAlign=top;spacingLeft=4;spacingRight=4;overflow=hidden;rotatable=0;points=[[0,0.5],[1,0.5]];portConstraint=eastwest;fontStyle=0" parent="39lKBW_woLL2HkYNTkp4-120" vertex="1">
          <mxGeometry y="26" width="160" height="26" as="geometry" />
        </mxCell>
        <mxCell id="39lKBW_woLL2HkYNTkp4-176" value="Matéria" style="text;align=left;verticalAlign=top;spacingLeft=4;spacingRight=4;overflow=hidden;rotatable=0;points=[[0,0.5],[1,0.5]];portConstraint=eastwest;fontStyle=0" parent="39lKBW_woLL2HkYNTkp4-120" vertex="1">
          <mxGeometry y="52" width="160" height="26" as="geometry" />
        </mxCell>
        <mxCell id="39lKBW_woLL2HkYNTkp4-122" value="Titulo" style="text;align=left;verticalAlign=top;spacingLeft=4;spacingRight=4;overflow=hidden;rotatable=0;points=[[0,0.5],[1,0.5]];portConstraint=eastwest;" parent="39lKBW_woLL2HkYNTkp4-120" vertex="1">
          <mxGeometry y="78" width="160" height="26" as="geometry" />
        </mxCell>
        <mxCell id="39lKBW_woLL2HkYNTkp4-124" value="Descrição" style="text;align=left;verticalAlign=top;spacingLeft=4;spacingRight=4;overflow=hidden;rotatable=0;points=[[0,0.5],[1,0.5]];portConstraint=eastwest;" parent="39lKBW_woLL2HkYNTkp4-120" vertex="1">
          <mxGeometry y="104" width="160" height="26" as="geometry" />
        </mxCell>
        <mxCell id="39lKBW_woLL2HkYNTkp4-125" value="Nota" style="text;align=left;verticalAlign=top;spacingLeft=4;spacingRight=4;overflow=hidden;rotatable=0;points=[[0,0.5],[1,0.5]];portConstraint=eastwest;rounded=0;shadow=0;html=0;" parent="39lKBW_woLL2HkYNTkp4-120" vertex="1">
          <mxGeometry y="130" width="160" height="26" as="geometry" />
        </mxCell>
        <mxCell id="39lKBW_woLL2HkYNTkp4-126" value="Questões" style="text;align=left;verticalAlign=top;spacingLeft=4;spacingRight=4;overflow=hidden;rotatable=0;points=[[0,0.5],[1,0.5]];portConstraint=eastwest;rounded=0;shadow=0;html=0;" parent="39lKBW_woLL2HkYNTkp4-120" vertex="1">
          <mxGeometry y="156" width="160" height="26" as="geometry" />
        </mxCell>
        <mxCell id="39lKBW_woLL2HkYNTkp4-134" value="Questão" style="swimlane;fontStyle=0;align=center;verticalAlign=top;childLayout=stackLayout;horizontal=1;startSize=26;horizontalStack=0;resizeParent=1;resizeLast=0;collapsible=1;marginBottom=0;rounded=0;shadow=0;strokeWidth=1;" parent="1" vertex="1">
          <mxGeometry x="1015" y="986" width="160" height="105" as="geometry">
            <mxRectangle x="130" y="380" width="160" height="26" as="alternateBounds" />
          </mxGeometry>
        </mxCell>
        <mxCell id="39lKBW_woLL2HkYNTkp4-136" value="Texto" style="text;align=left;verticalAlign=top;spacingLeft=4;spacingRight=4;overflow=hidden;rotatable=0;points=[[0,0.5],[1,0.5]];portConstraint=eastwest;fontStyle=0" parent="39lKBW_woLL2HkYNTkp4-134" vertex="1">
          <mxGeometry y="26" width="160" height="26" as="geometry" />
        </mxCell>
        <mxCell id="39lKBW_woLL2HkYNTkp4-138" value="Respostas" style="text;align=left;verticalAlign=top;spacingLeft=4;spacingRight=4;overflow=hidden;rotatable=0;points=[[0,0.5],[1,0.5]];portConstraint=eastwest;" parent="39lKBW_woLL2HkYNTkp4-134" vertex="1">
          <mxGeometry y="52" width="160" height="26" as="geometry" />
        </mxCell>
        <mxCell id="39lKBW_woLL2HkYNTkp4-139" value="Resposta correta" style="text;align=left;verticalAlign=top;spacingLeft=4;spacingRight=4;overflow=hidden;rotatable=0;points=[[0,0.5],[1,0.5]];portConstraint=eastwest;rounded=0;shadow=0;html=0;" parent="39lKBW_woLL2HkYNTkp4-134" vertex="1">
          <mxGeometry y="78" width="160" height="26" as="geometry" />
        </mxCell>
        <mxCell id="39lKBW_woLL2HkYNTkp4-161" style="edgeStyle=orthogonalEdgeStyle;rounded=0;orthogonalLoop=1;jettySize=auto;html=1;entryX=0.371;entryY=-0.002;entryDx=0;entryDy=0;entryPerimeter=0;" parent="1" source="39lKBW_woLL2HkYNTkp4-44" target="39lKBW_woLL2HkYNTkp4-157" edge="1">
          <mxGeometry relative="1" as="geometry" />
        </mxCell>
        <mxCell id="39lKBW_woLL2HkYNTkp4-164" style="edgeStyle=orthogonalEdgeStyle;rounded=0;orthogonalLoop=1;jettySize=auto;html=1;entryX=1.038;entryY=-0.071;entryDx=0;entryDy=0;entryPerimeter=0;" parent="1" source="39lKBW_woLL2HkYNTkp4-44" target="39lKBW_woLL2HkYNTkp4-149" edge="1">
          <mxGeometry relative="1" as="geometry" />
        </mxCell>
        <mxCell id="39lKBW_woLL2HkYNTkp4-167" style="edgeStyle=orthogonalEdgeStyle;rounded=0;orthogonalLoop=1;jettySize=auto;html=1;entryX=0;entryY=0.226;entryDx=0;entryDy=0;entryPerimeter=0;" parent="1" source="39lKBW_woLL2HkYNTkp4-120" target="39lKBW_woLL2HkYNTkp4-157" edge="1">
          <mxGeometry relative="1" as="geometry">
            <Array as="points">
              <mxPoint x="1095" y="940" />
              <mxPoint x="1495" y="940" />
            </Array>
          </mxGeometry>
        </mxCell>
        <mxCell id="39lKBW_woLL2HkYNTkp4-180" value="Funções" style="swimlane;fontStyle=0;childLayout=stackLayout;horizontal=1;startSize=30;horizontalStack=0;resizeParent=1;resizeParentMax=0;resizeLast=0;collapsible=1;marginBottom=0;whiteSpace=wrap;html=1;" parent="1" vertex="1">
          <mxGeometry x="1550" y="1595" width="140" height="810" as="geometry" />
        </mxCell>
        <mxCell id="95m8hWRHG62bw1tJJEt7-1" value="criarCurso" style="text;strokeColor=#2D7600;fillColor=#60a917;align=left;verticalAlign=middle;spacingLeft=4;spacingRight=4;overflow=hidden;points=[[0,0.5],[1,0.5]];portConstraint=eastwest;rotatable=0;whiteSpace=wrap;html=1;fontColor=#ffffff;" parent="39lKBW_woLL2HkYNTkp4-180" vertex="1">
          <mxGeometry y="30" width="140" height="30" as="geometry" />
        </mxCell>
        <mxCell id="95m8hWRHG62bw1tJJEt7-2" value="criarAluno" style="text;strokeColor=#2D7600;fillColor=#60a917;align=left;verticalAlign=middle;spacingLeft=4;spacingRight=4;overflow=hidden;points=[[0,0.5],[1,0.5]];portConstraint=eastwest;rotatable=0;whiteSpace=wrap;html=1;fontColor=#ffffff;" parent="39lKBW_woLL2HkYNTkp4-180" vertex="1">
          <mxGeometry y="60" width="140" height="30" as="geometry" />
        </mxCell>
        <mxCell id="95m8hWRHG62bw1tJJEt7-3" value="criarProfessor" style="text;strokeColor=#2D7600;fillColor=#60a917;align=left;verticalAlign=middle;spacingLeft=4;spacingRight=4;overflow=hidden;points=[[0,0.5],[1,0.5]];portConstraint=eastwest;rotatable=0;whiteSpace=wrap;html=1;fontColor=#ffffff;" parent="39lKBW_woLL2HkYNTkp4-180" vertex="1">
          <mxGeometry y="90" width="140" height="30" as="geometry" />
        </mxCell>
        <mxCell id="95m8hWRHG62bw1tJJEt7-4" value="criarAula" style="text;strokeColor=#2D7600;fillColor=#60a917;align=left;verticalAlign=middle;spacingLeft=4;spacingRight=4;overflow=hidden;points=[[0,0.5],[1,0.5]];portConstraint=eastwest;rotatable=0;whiteSpace=wrap;html=1;fontColor=#ffffff;" parent="39lKBW_woLL2HkYNTkp4-180" vertex="1">
          <mxGeometry y="120" width="140" height="30" as="geometry" />
        </mxCell>
        <mxCell id="95m8hWRHG62bw1tJJEt7-5" value="criarProva" style="text;strokeColor=#2D7600;fillColor=#60a917;align=left;verticalAlign=middle;spacingLeft=4;spacingRight=4;overflow=hidden;points=[[0,0.5],[1,0.5]];portConstraint=eastwest;rotatable=0;whiteSpace=wrap;html=1;fontColor=#ffffff;" parent="39lKBW_woLL2HkYNTkp4-180" vertex="1">
          <mxGeometry y="150" width="140" height="30" as="geometry" />
        </mxCell>
        <mxCell id="39lKBW_woLL2HkYNTkp4-181" value="&lt;div&gt;listarCursos&lt;/div&gt;" style="text;strokeColor=#2D7600;fillColor=#60a917;align=left;verticalAlign=middle;spacingLeft=4;spacingRight=4;overflow=hidden;points=[[0,0.5],[1,0.5]];portConstraint=eastwest;rotatable=0;whiteSpace=wrap;html=1;fontColor=#ffffff;" parent="39lKBW_woLL2HkYNTkp4-180" vertex="1">
          <mxGeometry y="180" width="140" height="30" as="geometry" />
        </mxCell>
        <mxCell id="39lKBW_woLL2HkYNTkp4-182" value="detalharCursos&lt;span style=&quot;white-space: pre;&quot;&gt;&#x9;&lt;/span&gt;" style="text;strokeColor=#2D7600;fillColor=#60a917;align=left;verticalAlign=middle;spacingLeft=4;spacingRight=4;overflow=hidden;points=[[0,0.5],[1,0.5]];portConstraint=eastwest;rotatable=0;whiteSpace=wrap;html=1;fontColor=#ffffff;" parent="39lKBW_woLL2HkYNTkp4-180" vertex="1">
          <mxGeometry y="210" width="140" height="30" as="geometry" />
        </mxCell>
        <mxCell id="39lKBW_woLL2HkYNTkp4-188" value="listarAlunos" style="text;strokeColor=#2D7600;fillColor=#60a917;align=left;verticalAlign=middle;spacingLeft=4;spacingRight=4;overflow=hidden;points=[[0,0.5],[1,0.5]];portConstraint=eastwest;rotatable=0;whiteSpace=wrap;html=1;fontColor=#ffffff;" parent="39lKBW_woLL2HkYNTkp4-180" vertex="1">
          <mxGeometry y="240" width="140" height="30" as="geometry" />
        </mxCell>
        <mxCell id="39lKBW_woLL2HkYNTkp4-189" value="detalharAluno" style="text;strokeColor=#2D7600;fillColor=#60a917;align=left;verticalAlign=middle;spacingLeft=4;spacingRight=4;overflow=hidden;points=[[0,0.5],[1,0.5]];portConstraint=eastwest;rotatable=0;whiteSpace=wrap;html=1;fontColor=#ffffff;" parent="39lKBW_woLL2HkYNTkp4-180" vertex="1">
          <mxGeometry y="270" width="140" height="30" as="geometry" />
        </mxCell>
        <mxCell id="39lKBW_woLL2HkYNTkp4-190" value="listarProfessores" style="text;strokeColor=#2D7600;fillColor=#60a917;align=left;verticalAlign=middle;spacingLeft=4;spacingRight=4;overflow=hidden;points=[[0,0.5],[1,0.5]];portConstraint=eastwest;rotatable=0;whiteSpace=wrap;html=1;fontColor=#ffffff;" parent="39lKBW_woLL2HkYNTkp4-180" vertex="1">
          <mxGeometry y="300" width="140" height="30" as="geometry" />
        </mxCell>
        <mxCell id="39lKBW_woLL2HkYNTkp4-191" value="detalharProfessor" style="text;strokeColor=#2D7600;fillColor=#60a917;align=left;verticalAlign=middle;spacingLeft=4;spacingRight=4;overflow=hidden;points=[[0,0.5],[1,0.5]];portConstraint=eastwest;rotatable=0;whiteSpace=wrap;html=1;fontColor=#ffffff;" parent="39lKBW_woLL2HkYNTkp4-180" vertex="1">
          <mxGeometry y="330" width="140" height="30" as="geometry" />
        </mxCell>
        <mxCell id="39lKBW_woLL2HkYNTkp4-183" value="listarProvasPorCurso&lt;span style=&quot;white-space: pre;&quot;&gt;&#x9;&lt;/span&gt;&lt;span style=&quot;white-space: pre;&quot;&gt;&#x9;&lt;/span&gt;" style="text;strokeColor=none;fillColor=none;align=left;verticalAlign=middle;spacingLeft=4;spacingRight=4;overflow=hidden;points=[[0,0.5],[1,0.5]];portConstraint=eastwest;rotatable=0;whiteSpace=wrap;html=1;" parent="39lKBW_woLL2HkYNTkp4-180" vertex="1">
          <mxGeometry y="360" width="140" height="30" as="geometry" />
        </mxCell>
        <mxCell id="39lKBW_woLL2HkYNTkp4-184" value="detalharProvas&lt;span style=&quot;white-space: pre;&quot;&gt;&#x9;&lt;/span&gt;&lt;span style=&quot;white-space: pre;&quot;&gt;&#x9;&lt;/span&gt;" style="text;strokeColor=#2D7600;fillColor=#60a917;align=left;verticalAlign=middle;spacingLeft=4;spacingRight=4;overflow=hidden;points=[[0,0.5],[1,0.5]];portConstraint=eastwest;rotatable=0;whiteSpace=wrap;html=1;fontColor=#ffffff;" parent="39lKBW_woLL2HkYNTkp4-180" vertex="1">
          <mxGeometry y="390" width="140" height="30" as="geometry" />
        </mxCell>
        <mxCell id="39lKBW_woLL2HkYNTkp4-199" value="&lt;div&gt;listarMaterial&lt;/div&gt;" style="text;strokeColor=none;fillColor=none;align=left;verticalAlign=middle;spacingLeft=4;spacingRight=4;overflow=hidden;points=[[0,0.5],[1,0.5]];portConstraint=eastwest;rotatable=0;whiteSpace=wrap;html=1;" parent="39lKBW_woLL2HkYNTkp4-180" vertex="1">
          <mxGeometry y="420" width="140" height="30" as="geometry" />
        </mxCell>
        <mxCell id="39lKBW_woLL2HkYNTkp4-201" value="detalharMaterial" style="text;strokeColor=none;fillColor=none;align=left;verticalAlign=middle;spacingLeft=4;spacingRight=4;overflow=hidden;points=[[0,0.5],[1,0.5]];portConstraint=eastwest;rotatable=0;whiteSpace=wrap;html=1;" parent="39lKBW_woLL2HkYNTkp4-180" vertex="1">
          <mxGeometry y="450" width="140" height="30" as="geometry" />
        </mxCell>
        <mxCell id="39lKBW_woLL2HkYNTkp4-185" value="iniciarProva" style="text;strokeColor=none;fillColor=none;align=left;verticalAlign=middle;spacingLeft=4;spacingRight=4;overflow=hidden;points=[[0,0.5],[1,0.5]];portConstraint=eastwest;rotatable=0;whiteSpace=wrap;html=1;" parent="39lKBW_woLL2HkYNTkp4-180" vertex="1">
          <mxGeometry y="480" width="140" height="30" as="geometry" />
        </mxCell>
        <mxCell id="39lKBW_woLL2HkYNTkp4-186" value="responderQuestão" style="text;strokeColor=none;fillColor=none;align=left;verticalAlign=middle;spacingLeft=4;spacingRight=4;overflow=hidden;points=[[0,0.5],[1,0.5]];portConstraint=eastwest;rotatable=0;whiteSpace=wrap;html=1;" parent="39lKBW_woLL2HkYNTkp4-180" vertex="1">
          <mxGeometry y="510" width="140" height="30" as="geometry" />
        </mxCell>
        <mxCell id="39lKBW_woLL2HkYNTkp4-187" value="finalizarProva" style="text;strokeColor=none;fillColor=none;align=left;verticalAlign=middle;spacingLeft=4;spacingRight=4;overflow=hidden;points=[[0,0.5],[1,0.5]];portConstraint=eastwest;rotatable=0;whiteSpace=wrap;html=1;" parent="39lKBW_woLL2HkYNTkp4-180" vertex="1">
          <mxGeometry y="540" width="140" height="30" as="geometry" />
        </mxCell>
        <mxCell id="39lKBW_woLL2HkYNTkp4-192" value="listarComFiltragem" style="text;strokeColor=none;fillColor=none;align=left;verticalAlign=middle;spacingLeft=4;spacingRight=4;overflow=hidden;points=[[0,0.5],[1,0.5]];portConstraint=eastwest;rotatable=0;whiteSpace=wrap;html=1;" parent="39lKBW_woLL2HkYNTkp4-180" vertex="1">
          <mxGeometry y="570" width="140" height="30" as="geometry" />
        </mxCell>
        <mxCell id="39lKBW_woLL2HkYNTkp4-193" value="iniciarCurso&lt;span style=&quot;white-space: pre;&quot;&gt;&#x9;&lt;/span&gt;" style="text;strokeColor=none;fillColor=none;align=left;verticalAlign=middle;spacingLeft=4;spacingRight=4;overflow=hidden;points=[[0,0.5],[1,0.5]];portConstraint=eastwest;rotatable=0;whiteSpace=wrap;html=1;" parent="39lKBW_woLL2HkYNTkp4-180" vertex="1">
          <mxGeometry y="600" width="140" height="30" as="geometry" />
        </mxCell>
        <mxCell id="39lKBW_woLL2HkYNTkp4-194" value="fazerAula&lt;span style=&quot;white-space: pre;&quot;&gt;&#x9;&lt;/span&gt;" style="text;strokeColor=none;fillColor=none;align=left;verticalAlign=middle;spacingLeft=4;spacingRight=4;overflow=hidden;points=[[0,0.5],[1,0.5]];portConstraint=eastwest;rotatable=0;whiteSpace=wrap;html=1;" parent="39lKBW_woLL2HkYNTkp4-180" vertex="1">
          <mxGeometry y="630" width="140" height="30" as="geometry" />
        </mxCell>
        <mxCell id="39lKBW_woLL2HkYNTkp4-195" value="fazerComentário" style="text;strokeColor=none;fillColor=none;align=left;verticalAlign=middle;spacingLeft=4;spacingRight=4;overflow=hidden;points=[[0,0.5],[1,0.5]];portConstraint=eastwest;rotatable=0;whiteSpace=wrap;html=1;" parent="39lKBW_woLL2HkYNTkp4-180" vertex="1">
          <mxGeometry y="660" width="140" height="30" as="geometry" />
        </mxCell>
        <mxCell id="39lKBW_woLL2HkYNTkp4-196" value="listarComentáriosPorCurso" style="text;strokeColor=none;fillColor=none;align=left;verticalAlign=middle;spacingLeft=4;spacingRight=4;overflow=hidden;points=[[0,0.5],[1,0.5]];portConstraint=eastwest;rotatable=0;whiteSpace=wrap;html=1;" parent="39lKBW_woLL2HkYNTkp4-180" vertex="1">
          <mxGeometry y="690" width="140" height="30" as="geometry" />
        </mxCell>
        <mxCell id="39lKBW_woLL2HkYNTkp4-197" value="atualizarMaterial" style="text;strokeColor=none;fillColor=none;align=left;verticalAlign=middle;spacingLeft=4;spacingRight=4;overflow=hidden;points=[[0,0.5],[1,0.5]];portConstraint=eastwest;rotatable=0;whiteSpace=wrap;html=1;" parent="39lKBW_woLL2HkYNTkp4-180" vertex="1">
          <mxGeometry y="720" width="140" height="30" as="geometry" />
        </mxCell>
        <mxCell id="39lKBW_woLL2HkYNTkp4-198" value="atualizarInformaçãoDeUsuario" style="text;strokeColor=none;fillColor=none;align=left;verticalAlign=middle;spacingLeft=4;spacingRight=4;overflow=hidden;points=[[0,0.5],[1,0.5]];portConstraint=eastwest;rotatable=0;whiteSpace=wrap;html=1;" parent="39lKBW_woLL2HkYNTkp4-180" vertex="1">
          <mxGeometry y="750" width="140" height="30" as="geometry" />
        </mxCell>
        <mxCell id="39lKBW_woLL2HkYNTkp4-202" value="listarAprovados" style="text;strokeColor=none;fillColor=none;align=left;verticalAlign=middle;spacingLeft=4;spacingRight=4;overflow=hidden;points=[[0,0.5],[1,0.5]];portConstraint=eastwest;rotatable=0;whiteSpace=wrap;html=1;" parent="39lKBW_woLL2HkYNTkp4-180" vertex="1">
          <mxGeometry y="780" width="140" height="30" as="geometry" />
        </mxCell>
        <mxCell id="39lKBW_woLL2HkYNTkp4-200" value="Funções" style="rounded=1;whiteSpace=wrap;html=1;" parent="1" vertex="1">
          <mxGeometry x="1530" y="1440" width="180" height="60" as="geometry" />
        </mxCell>
        <mxCell id="39lKBW_woLL2HkYNTkp4-203" style="edgeStyle=orthogonalEdgeStyle;rounded=0;orthogonalLoop=1;jettySize=auto;html=1;" parent="1" source="39lKBW_woLL2HkYNTkp4-212" target="39lKBW_woLL2HkYNTkp4-226" edge="1">
          <mxGeometry relative="1" as="geometry">
            <Array as="points">
              <mxPoint x="1620" y="2745" />
              <mxPoint x="1760" y="2745" />
            </Array>
          </mxGeometry>
        </mxCell>
        <mxCell id="39lKBW_woLL2HkYNTkp4-204" style="edgeStyle=orthogonalEdgeStyle;rounded=0;orthogonalLoop=1;jettySize=auto;html=1;" parent="1" source="39lKBW_woLL2HkYNTkp4-212" target="39lKBW_woLL2HkYNTkp4-221" edge="1">
          <mxGeometry relative="1" as="geometry">
            <Array as="points">
              <mxPoint x="1620" y="2745" />
              <mxPoint x="1330" y="2745" />
            </Array>
          </mxGeometry>
        </mxCell>
        <mxCell id="39lKBW_woLL2HkYNTkp4-205" style="edgeStyle=orthogonalEdgeStyle;rounded=0;orthogonalLoop=1;jettySize=auto;html=1;" parent="1" source="39lKBW_woLL2HkYNTkp4-212" target="39lKBW_woLL2HkYNTkp4-219" edge="1">
          <mxGeometry relative="1" as="geometry">
            <Array as="points">
              <mxPoint x="1620" y="2745" />
              <mxPoint x="640" y="2745" />
            </Array>
          </mxGeometry>
        </mxCell>
        <mxCell id="39lKBW_woLL2HkYNTkp4-210" style="edgeStyle=orthogonalEdgeStyle;rounded=0;orthogonalLoop=1;jettySize=auto;html=1;" parent="1" source="39lKBW_woLL2HkYNTkp4-212" target="39lKBW_woLL2HkYNTkp4-229" edge="1">
          <mxGeometry relative="1" as="geometry">
            <Array as="points">
              <mxPoint x="1620" y="2745" />
              <mxPoint x="10" y="2745" />
            </Array>
          </mxGeometry>
        </mxCell>
        <mxCell id="39lKBW_woLL2HkYNTkp4-211" style="edgeStyle=orthogonalEdgeStyle;rounded=0;orthogonalLoop=1;jettySize=auto;html=1;" parent="1" source="39lKBW_woLL2HkYNTkp4-212" target="39lKBW_woLL2HkYNTkp4-233" edge="1">
          <mxGeometry relative="1" as="geometry">
            <Array as="points">
              <mxPoint x="1620" y="2745" />
              <mxPoint x="-400" y="2745" />
            </Array>
          </mxGeometry>
        </mxCell>
        <mxCell id="39lKBW_woLL2HkYNTkp4-287" style="edgeStyle=orthogonalEdgeStyle;rounded=0;orthogonalLoop=1;jettySize=auto;html=1;" parent="1" source="39lKBW_woLL2HkYNTkp4-212" target="39lKBW_woLL2HkYNTkp4-238" edge="1">
          <mxGeometry relative="1" as="geometry">
            <Array as="points">
              <mxPoint x="1620" y="2743" />
              <mxPoint x="2560" y="2743" />
            </Array>
          </mxGeometry>
        </mxCell>
        <mxCell id="39lKBW_woLL2HkYNTkp4-288" style="edgeStyle=orthogonalEdgeStyle;rounded=0;orthogonalLoop=1;jettySize=auto;html=1;" parent="1" source="39lKBW_woLL2HkYNTkp4-212" target="39lKBW_woLL2HkYNTkp4-239" edge="1">
          <mxGeometry relative="1" as="geometry">
            <Array as="points">
              <mxPoint x="1620" y="2743" />
              <mxPoint x="2730" y="2743" />
            </Array>
          </mxGeometry>
        </mxCell>
        <mxCell id="39lKBW_woLL2HkYNTkp4-289" style="edgeStyle=orthogonalEdgeStyle;rounded=0;orthogonalLoop=1;jettySize=auto;html=1;entryX=0.5;entryY=0;entryDx=0;entryDy=0;" parent="1" source="39lKBW_woLL2HkYNTkp4-212" target="39lKBW_woLL2HkYNTkp4-240" edge="1">
          <mxGeometry relative="1" as="geometry">
            <Array as="points">
              <mxPoint x="1620" y="2743" />
              <mxPoint x="2900" y="2743" />
            </Array>
          </mxGeometry>
        </mxCell>
        <mxCell id="95m8hWRHG62bw1tJJEt7-10" style="edgeStyle=orthogonalEdgeStyle;rounded=0;orthogonalLoop=1;jettySize=auto;html=1;" parent="1" source="39lKBW_woLL2HkYNTkp4-212" target="39lKBW_woLL2HkYNTkp4-267" edge="1">
          <mxGeometry relative="1" as="geometry">
            <Array as="points">
              <mxPoint x="1620" y="2740" />
              <mxPoint x="2305" y="2740" />
            </Array>
          </mxGeometry>
        </mxCell>
        <mxCell id="39lKBW_woLL2HkYNTkp4-212" value="PastaPrincipal" style="rounded=0;whiteSpace=wrap;html=1;" parent="1" vertex="1">
          <mxGeometry x="1560" y="2655" width="120" height="60" as="geometry" />
        </mxCell>
        <mxCell id="39lKBW_woLL2HkYNTkp4-213" style="edgeStyle=orthogonalEdgeStyle;rounded=0;orthogonalLoop=1;jettySize=auto;html=1;entryX=0.5;entryY=0;entryDx=0;entryDy=0;" parent="1" source="39lKBW_woLL2HkYNTkp4-219" target="39lKBW_woLL2HkYNTkp4-246" edge="1">
          <mxGeometry relative="1" as="geometry">
            <Array as="points">
              <mxPoint x="640" y="2845" />
              <mxPoint x="270" y="2845" />
            </Array>
          </mxGeometry>
        </mxCell>
        <mxCell id="39lKBW_woLL2HkYNTkp4-214" style="edgeStyle=orthogonalEdgeStyle;rounded=0;orthogonalLoop=1;jettySize=auto;html=1;" parent="1" source="39lKBW_woLL2HkYNTkp4-219" target="39lKBW_woLL2HkYNTkp4-250" edge="1">
          <mxGeometry relative="1" as="geometry">
            <Array as="points">
              <mxPoint x="640" y="2845" />
              <mxPoint x="410" y="2845" />
            </Array>
          </mxGeometry>
        </mxCell>
        <mxCell id="39lKBW_woLL2HkYNTkp4-215" style="edgeStyle=orthogonalEdgeStyle;rounded=0;orthogonalLoop=1;jettySize=auto;html=1;entryX=0.5;entryY=0;entryDx=0;entryDy=0;" parent="1" source="39lKBW_woLL2HkYNTkp4-219" target="39lKBW_woLL2HkYNTkp4-255" edge="1">
          <mxGeometry relative="1" as="geometry">
            <Array as="points">
              <mxPoint x="640" y="2845" />
              <mxPoint x="700" y="2845" />
            </Array>
          </mxGeometry>
        </mxCell>
        <mxCell id="39lKBW_woLL2HkYNTkp4-218" style="edgeStyle=orthogonalEdgeStyle;rounded=0;orthogonalLoop=1;jettySize=auto;html=1;" parent="1" source="39lKBW_woLL2HkYNTkp4-219" target="39lKBW_woLL2HkYNTkp4-258" edge="1">
          <mxGeometry relative="1" as="geometry">
            <Array as="points">
              <mxPoint x="640" y="2845" />
              <mxPoint x="1020" y="2845" />
            </Array>
          </mxGeometry>
        </mxCell>
        <mxCell id="39lKBW_woLL2HkYNTkp4-285" style="edgeStyle=orthogonalEdgeStyle;rounded=0;orthogonalLoop=1;jettySize=auto;html=1;" parent="1" source="39lKBW_woLL2HkYNTkp4-219" target="39lKBW_woLL2HkYNTkp4-257" edge="1">
          <mxGeometry relative="1" as="geometry">
            <Array as="points">
              <mxPoint x="640" y="2843" />
              <mxPoint x="850" y="2843" />
            </Array>
          </mxGeometry>
        </mxCell>
        <mxCell id="39lKBW_woLL2HkYNTkp4-219" value="Models" style="rounded=0;whiteSpace=wrap;html=1;" parent="1" vertex="1">
          <mxGeometry x="580" y="2775" width="120" height="60" as="geometry" />
        </mxCell>
        <mxCell id="39lKBW_woLL2HkYNTkp4-220" value="" style="edgeStyle=orthogonalEdgeStyle;rounded=0;orthogonalLoop=1;jettySize=auto;html=1;" parent="1" source="39lKBW_woLL2HkYNTkp4-221" target="39lKBW_woLL2HkYNTkp4-260" edge="1">
          <mxGeometry relative="1" as="geometry" />
        </mxCell>
        <mxCell id="39lKBW_woLL2HkYNTkp4-221" value="Utils" style="rounded=0;whiteSpace=wrap;html=1;" parent="1" vertex="1">
          <mxGeometry x="1270" y="2785" width="120" height="60" as="geometry" />
        </mxCell>
        <mxCell id="39lKBW_woLL2HkYNTkp4-222" style="edgeStyle=orthogonalEdgeStyle;rounded=0;orthogonalLoop=1;jettySize=auto;html=1;" parent="1" source="39lKBW_woLL2HkYNTkp4-226" target="39lKBW_woLL2HkYNTkp4-264" edge="1">
          <mxGeometry relative="1" as="geometry">
            <Array as="points">
              <mxPoint x="1760" y="2855" />
              <mxPoint x="2000" y="2855" />
            </Array>
          </mxGeometry>
        </mxCell>
        <mxCell id="39lKBW_woLL2HkYNTkp4-223" style="edgeStyle=orthogonalEdgeStyle;rounded=0;orthogonalLoop=1;jettySize=auto;html=1;entryX=0.5;entryY=0;entryDx=0;entryDy=0;" parent="1" source="39lKBW_woLL2HkYNTkp4-226" target="39lKBW_woLL2HkYNTkp4-263" edge="1">
          <mxGeometry relative="1" as="geometry">
            <Array as="points">
              <mxPoint x="1760" y="2855" />
              <mxPoint x="1840" y="2855" />
            </Array>
          </mxGeometry>
        </mxCell>
        <mxCell id="39lKBW_woLL2HkYNTkp4-224" style="edgeStyle=orthogonalEdgeStyle;rounded=0;orthogonalLoop=1;jettySize=auto;html=1;entryX=0.5;entryY=0;entryDx=0;entryDy=0;" parent="1" source="39lKBW_woLL2HkYNTkp4-226" target="39lKBW_woLL2HkYNTkp4-262" edge="1">
          <mxGeometry relative="1" as="geometry">
            <Array as="points">
              <mxPoint x="1760" y="2855" />
              <mxPoint x="1660" y="2855" />
            </Array>
          </mxGeometry>
        </mxCell>
        <mxCell id="39lKBW_woLL2HkYNTkp4-225" style="edgeStyle=orthogonalEdgeStyle;rounded=0;orthogonalLoop=1;jettySize=auto;html=1;" parent="1" source="39lKBW_woLL2HkYNTkp4-226" target="39lKBW_woLL2HkYNTkp4-261" edge="1">
          <mxGeometry relative="1" as="geometry">
            <Array as="points">
              <mxPoint x="1760" y="2855" />
              <mxPoint x="1500" y="2855" />
            </Array>
          </mxGeometry>
        </mxCell>
        <mxCell id="39lKBW_woLL2HkYNTkp4-226" value="Services" style="rounded=0;whiteSpace=wrap;html=1;" parent="1" vertex="1">
          <mxGeometry x="1700" y="2785" width="120" height="60" as="geometry" />
        </mxCell>
        <mxCell id="39lKBW_woLL2HkYNTkp4-227" style="edgeStyle=orthogonalEdgeStyle;rounded=0;orthogonalLoop=1;jettySize=auto;html=1;entryX=0.5;entryY=0;entryDx=0;entryDy=0;" parent="1" source="39lKBW_woLL2HkYNTkp4-229" target="39lKBW_woLL2HkYNTkp4-244" edge="1">
          <mxGeometry relative="1" as="geometry" />
        </mxCell>
        <mxCell id="39lKBW_woLL2HkYNTkp4-228" style="edgeStyle=orthogonalEdgeStyle;rounded=0;orthogonalLoop=1;jettySize=auto;html=1;" parent="1" source="39lKBW_woLL2HkYNTkp4-229" edge="1">
          <mxGeometry relative="1" as="geometry">
            <mxPoint x="-50" y="2882.5" as="targetPoint" />
          </mxGeometry>
        </mxCell>
        <mxCell id="39lKBW_woLL2HkYNTkp4-229" value="DataBase" style="rounded=0;whiteSpace=wrap;html=1;" parent="1" vertex="1">
          <mxGeometry x="-50" y="2775" width="120" height="60" as="geometry" />
        </mxCell>
        <mxCell id="39lKBW_woLL2HkYNTkp4-230" value="" style="edgeStyle=orthogonalEdgeStyle;rounded=0;orthogonalLoop=1;jettySize=auto;html=1;" parent="1" source="39lKBW_woLL2HkYNTkp4-233" target="39lKBW_woLL2HkYNTkp4-242" edge="1">
          <mxGeometry relative="1" as="geometry" />
        </mxCell>
        <mxCell id="39lKBW_woLL2HkYNTkp4-231" style="edgeStyle=orthogonalEdgeStyle;rounded=0;orthogonalLoop=1;jettySize=auto;html=1;entryX=0.5;entryY=0;entryDx=0;entryDy=0;exitX=0.5;exitY=1;exitDx=0;exitDy=0;" parent="1" source="39lKBW_woLL2HkYNTkp4-233" target="39lKBW_woLL2HkYNTkp4-243" edge="1">
          <mxGeometry relative="1" as="geometry">
            <mxPoint x="-400" y="2845" as="sourcePoint" />
            <Array as="points">
              <mxPoint x="-400" y="2865" />
              <mxPoint x="-250" y="2865" />
            </Array>
          </mxGeometry>
        </mxCell>
        <mxCell id="39lKBW_woLL2HkYNTkp4-232" style="edgeStyle=orthogonalEdgeStyle;rounded=0;orthogonalLoop=1;jettySize=auto;html=1;entryX=0.5;entryY=0;entryDx=0;entryDy=0;" parent="1" target="39lKBW_woLL2HkYNTkp4-241" edge="1">
          <mxGeometry relative="1" as="geometry">
            <mxPoint x="-400" y="2865" as="sourcePoint" />
            <Array as="points">
              <mxPoint x="-550" y="2865" />
            </Array>
          </mxGeometry>
        </mxCell>
        <mxCell id="39lKBW_woLL2HkYNTkp4-233" value="Tests" style="rounded=0;whiteSpace=wrap;html=1;" parent="1" vertex="1">
          <mxGeometry x="-460" y="2775" width="120" height="60" as="geometry" />
        </mxCell>
        <mxCell id="39lKBW_woLL2HkYNTkp4-238" value=".env" style="ellipse;whiteSpace=wrap;html=1;" parent="1" vertex="1">
          <mxGeometry x="2500" y="2775" width="120" height="80" as="geometry" />
        </mxCell>
        <mxCell id="39lKBW_woLL2HkYNTkp4-239" value=".gitignore" style="ellipse;whiteSpace=wrap;html=1;" parent="1" vertex="1">
          <mxGeometry x="2670" y="2775" width="120" height="80" as="geometry" />
        </mxCell>
        <mxCell id="39lKBW_woLL2HkYNTkp4-240" value="README" style="ellipse;whiteSpace=wrap;html=1;" parent="1" vertex="1">
          <mxGeometry x="2840" y="2775" width="120" height="80" as="geometry" />
        </mxCell>
        <mxCell id="39lKBW_woLL2HkYNTkp4-241" value="end to end" style="rounded=0;whiteSpace=wrap;html=1;" parent="1" vertex="1">
          <mxGeometry x="-610" y="2890" width="120" height="60" as="geometry" />
        </mxCell>
        <mxCell id="39lKBW_woLL2HkYNTkp4-242" value="Unit test" style="rounded=0;whiteSpace=wrap;html=1;" parent="1" vertex="1">
          <mxGeometry x="-460" y="2890" width="120" height="60" as="geometry" />
        </mxCell>
        <mxCell id="39lKBW_woLL2HkYNTkp4-243" value="Integration test" style="rounded=0;whiteSpace=wrap;html=1;" parent="1" vertex="1">
          <mxGeometry x="-310" y="2890" width="120" height="60" as="geometry" />
        </mxCell>
        <mxCell id="39lKBW_woLL2HkYNTkp4-244" value="db commands" style="ellipse;whiteSpace=wrap;html=1;" parent="1" vertex="1">
          <mxGeometry x="10" y="2880" width="120" height="80" as="geometry" />
        </mxCell>
        <mxCell id="39lKBW_woLL2HkYNTkp4-245" value="dbConnection" style="shape=cylinder3;whiteSpace=wrap;html=1;boundedLbl=1;backgroundOutline=1;size=15;" parent="1" vertex="1">
          <mxGeometry x="-90" y="2885" width="80" height="65" as="geometry" />
        </mxCell>
        <mxCell id="39lKBW_woLL2HkYNTkp4-246" value="Curso" style="ellipse;whiteSpace=wrap;html=1;" parent="1" vertex="1">
          <mxGeometry x="210" y="2882.5" width="120" height="80" as="geometry" />
        </mxCell>
        <mxCell id="39lKBW_woLL2HkYNTkp4-248" style="edgeStyle=orthogonalEdgeStyle;rounded=0;orthogonalLoop=1;jettySize=auto;html=1;entryX=0.5;entryY=0;entryDx=0;entryDy=0;" parent="1" source="39lKBW_woLL2HkYNTkp4-250" target="39lKBW_woLL2HkYNTkp4-253" edge="1">
          <mxGeometry relative="1" as="geometry">
            <Array as="points">
              <mxPoint x="410" y="2990" />
              <mxPoint x="570" y="2990" />
            </Array>
          </mxGeometry>
        </mxCell>
        <mxCell id="39lKBW_woLL2HkYNTkp4-249" style="edgeStyle=orthogonalEdgeStyle;rounded=0;orthogonalLoop=1;jettySize=auto;html=1;entryX=0.5;entryY=0;entryDx=0;entryDy=0;" parent="1" source="39lKBW_woLL2HkYNTkp4-250" target="39lKBW_woLL2HkYNTkp4-251" edge="1">
          <mxGeometry relative="1" as="geometry">
            <Array as="points">
              <mxPoint x="410" y="2990" />
              <mxPoint x="250" y="2990" />
            </Array>
          </mxGeometry>
        </mxCell>
        <mxCell id="39lKBW_woLL2HkYNTkp4-250" value="Usuario" style="ellipse;whiteSpace=wrap;html=1;" parent="1" vertex="1">
          <mxGeometry x="350" y="2882.5" width="120" height="80" as="geometry" />
        </mxCell>
        <mxCell id="39lKBW_woLL2HkYNTkp4-251" value="Professor" style="ellipse;whiteSpace=wrap;html=1;" parent="1" vertex="1">
          <mxGeometry x="190" y="3020" width="120" height="80" as="geometry" />
        </mxCell>
        <mxCell id="39lKBW_woLL2HkYNTkp4-253" value="Aula" style="ellipse;whiteSpace=wrap;html=1;" parent="1" vertex="1">
          <mxGeometry x="510" y="3020" width="120" height="80" as="geometry" />
        </mxCell>
        <mxCell id="39lKBW_woLL2HkYNTkp4-255" value="Prova" style="ellipse;whiteSpace=wrap;html=1;" parent="1" vertex="1">
          <mxGeometry x="640" y="2882.5" width="120" height="80" as="geometry" />
        </mxCell>
        <mxCell id="39lKBW_woLL2HkYNTkp4-257" value="Material" style="ellipse;whiteSpace=wrap;html=1;" parent="1" vertex="1">
          <mxGeometry x="790" y="2883.75" width="120" height="80" as="geometry" />
        </mxCell>
        <mxCell id="39lKBW_woLL2HkYNTkp4-258" value="Comentário" style="ellipse;whiteSpace=wrap;html=1;" parent="1" vertex="1">
          <mxGeometry x="960" y="2881.25" width="120" height="80" as="geometry" />
        </mxCell>
        <mxCell id="39lKBW_woLL2HkYNTkp4-260" value="Utilitaros Separados por categoria" style="rhombus;whiteSpace=wrap;html=1;rounded=0;" parent="1" vertex="1">
          <mxGeometry x="1280" y="2885" width="100" height="100" as="geometry" />
        </mxCell>
        <mxCell id="39lKBW_woLL2HkYNTkp4-261" value="Cursos" style="ellipse;whiteSpace=wrap;html=1;" parent="1" vertex="1">
          <mxGeometry x="1440" y="2877.5" width="120" height="80" as="geometry" />
        </mxCell>
        <mxCell id="39lKBW_woLL2HkYNTkp4-262" value="Provas" style="ellipse;whiteSpace=wrap;html=1;" parent="1" vertex="1">
          <mxGeometry x="1600" y="2880" width="120" height="80" as="geometry" />
        </mxCell>
        <mxCell id="39lKBW_woLL2HkYNTkp4-263" value="Professor" style="ellipse;whiteSpace=wrap;html=1;" parent="1" vertex="1">
          <mxGeometry x="1780" y="2877.5" width="120" height="80" as="geometry" />
        </mxCell>
        <mxCell id="39lKBW_woLL2HkYNTkp4-264" value="Aluno" style="ellipse;whiteSpace=wrap;html=1;" parent="1" vertex="1">
          <mxGeometry x="1940" y="2877.5" width="120" height="80" as="geometry" />
        </mxCell>
        <mxCell id="39lKBW_woLL2HkYNTkp4-265" style="edgeStyle=orthogonalEdgeStyle;rounded=0;orthogonalLoop=1;jettySize=auto;html=1;entryX=0.5;entryY=0;entryDx=0;entryDy=0;" parent="1" source="39lKBW_woLL2HkYNTkp4-267" target="39lKBW_woLL2HkYNTkp4-276" edge="1">
          <mxGeometry relative="1" as="geometry" />
        </mxCell>
        <mxCell id="39lKBW_woLL2HkYNTkp4-266" style="edgeStyle=orthogonalEdgeStyle;rounded=0;orthogonalLoop=1;jettySize=auto;html=1;entryX=0.5;entryY=0;entryDx=0;entryDy=0;" parent="1" source="39lKBW_woLL2HkYNTkp4-267" target="39lKBW_woLL2HkYNTkp4-275" edge="1">
          <mxGeometry relative="1" as="geometry" />
        </mxCell>
        <mxCell id="39lKBW_woLL2HkYNTkp4-267" value="Docker" style="rounded=0;whiteSpace=wrap;html=1;" parent="1" vertex="1">
          <mxGeometry x="2245" y="2785" width="120" height="60" as="geometry" />
        </mxCell>
        <mxCell id="39lKBW_woLL2HkYNTkp4-275" value="Dockerfile" style="ellipse;whiteSpace=wrap;html=1;" parent="1" vertex="1">
          <mxGeometry x="2165" y="2892.5" width="120" height="80" as="geometry" />
        </mxCell>
        <mxCell id="39lKBW_woLL2HkYNTkp4-276" value="DockerCompose" style="ellipse;whiteSpace=wrap;html=1;" parent="1" vertex="1">
          <mxGeometry x="2315" y="2892.5" width="120" height="80" as="geometry" />
        </mxCell>
        <mxCell id="39lKBW_woLL2HkYNTkp4-282" value="Arquitetura de pastas" style="rounded=1;whiteSpace=wrap;html=1;" parent="1" vertex="1">
          <mxGeometry x="1525" y="2493" width="190" height="60" as="geometry" />
        </mxCell>
        <mxCell id="Qdu74aOO8ja3lDv6DakR-1" value="1" style="text;html=1;align=center;verticalAlign=middle;whiteSpace=wrap;rounded=0;" parent="1" vertex="1">
          <mxGeometry x="1185" y="440" width="60" height="30" as="geometry" />
        </mxCell>
        <mxCell id="Qdu74aOO8ja3lDv6DakR-2" value="N" style="text;html=1;align=center;verticalAlign=middle;whiteSpace=wrap;rounded=0;" parent="1" vertex="1">
          <mxGeometry x="1760" y="516" width="60" height="30" as="geometry" />
        </mxCell>
        <mxCell id="Qdu74aOO8ja3lDv6DakR-3" value="N" style="text;html=1;align=center;verticalAlign=middle;whiteSpace=wrap;rounded=0;" parent="1" vertex="1">
          <mxGeometry x="1040" y="680" width="60" height="30" as="geometry" />
        </mxCell>
        <mxCell id="Qdu74aOO8ja3lDv6DakR-4" value="1" style="text;html=1;align=center;verticalAlign=middle;whiteSpace=wrap;rounded=0;" parent="1" vertex="1">
          <mxGeometry x="1625" y="410" width="60" height="30" as="geometry" />
        </mxCell>
        <mxCell id="Qdu74aOO8ja3lDv6DakR-5" value="N" style="text;html=1;align=center;verticalAlign=middle;whiteSpace=wrap;rounded=0;" parent="1" vertex="1">
          <mxGeometry x="1320" y="680" width="60" height="30" as="geometry" />
        </mxCell>
        <mxCell id="Qdu74aOO8ja3lDv6DakR-6" value="1" style="text;html=1;align=center;verticalAlign=middle;whiteSpace=wrap;rounded=0;" parent="1" vertex="1">
          <mxGeometry x="1040" y="892" width="60" height="30" as="geometry" />
        </mxCell>
        <mxCell id="Qdu74aOO8ja3lDv6DakR-8" value="N" style="text;html=1;align=center;verticalAlign=middle;whiteSpace=wrap;rounded=0;" parent="1" vertex="1">
          <mxGeometry x="1040" y="956" width="60" height="30" as="geometry" />
        </mxCell>
        <mxCell id="Qdu74aOO8ja3lDv6DakR-9" value="N" style="text;html=1;align=center;verticalAlign=middle;whiteSpace=wrap;rounded=0;" parent="1" vertex="1">
          <mxGeometry x="1405" y="400" width="60" height="30" as="geometry" />
        </mxCell>
        <mxCell id="Qdu74aOO8ja3lDv6DakR-10" value="N" style="text;html=1;align=center;verticalAlign=middle;whiteSpace=wrap;rounded=0;" parent="1" vertex="1">
          <mxGeometry x="1770" y="650" width="60" height="30" as="geometry" />
        </mxCell>
        <mxCell id="Qdu74aOO8ja3lDv6DakR-11" value="N" style="text;html=1;align=center;verticalAlign=middle;whiteSpace=wrap;rounded=0;" parent="1" vertex="1">
          <mxGeometry x="1980" y="410" width="60" height="30" as="geometry" />
        </mxCell>
        <mxCell id="Qdu74aOO8ja3lDv6DakR-12" value="1" style="text;html=1;align=center;verticalAlign=middle;whiteSpace=wrap;rounded=0;" parent="1" vertex="1">
          <mxGeometry x="1845" y="410" width="60" height="30" as="geometry" />
        </mxCell>
      </root>
    </mxGraphModel>
  </diagram>
</mxfile>
